<mxfile host="app.diagrams.net" agent="Mozilla/5.0 (Windows NT 10.0; Win64; x64) AppleWebKit/537.36 (KHTML, like Gecko) Chrome/141.0.0.0 Safari/537.36" version="28.2.8">
  <diagram name="Page-1" id="lrvumTBckvBfexCQAYEB">
    <mxGraphModel grid="1" page="1" gridSize="10" guides="1" tooltips="1" connect="1" arrows="1" fold="1" pageScale="1" pageWidth="827" pageHeight="1169" math="0" shadow="0">
      <root>
        <mxCell id="0" />
        <mxCell id="1" parent="0" />
        <mxCell id="A7ZzlWJJMUOSe7sUjOuB-1" value="" style="rounded=0;whiteSpace=wrap;html=1;" vertex="1" parent="1">
          <mxGeometry x="120" y="360" width="80" height="60" as="geometry" />
        </mxCell>
        <mxCell id="A7ZzlWJJMUOSe7sUjOuB-2" value="Humain" style="text;html=1;whiteSpace=wrap;strokeColor=none;fillColor=none;align=center;verticalAlign=middle;rounded=0;fontSize=13;fontStyle=1" vertex="1" parent="1">
          <mxGeometry x="130" y="330" width="60" height="30" as="geometry" />
        </mxCell>
        <mxCell id="A7ZzlWJJMUOSe7sUjOuB-3" value="&lt;font style=&quot;font-size: 6px;&quot;&gt;Distance = V&lt;font style=&quot;&quot;&gt;alim&lt;/font&gt; x 4.93 x t&lt;/font&gt;" style="rounded=0;whiteSpace=wrap;html=1;" vertex="1" parent="1">
          <mxGeometry x="320" y="360" width="80" height="60" as="geometry" />
        </mxCell>
        <mxCell id="A7ZzlWJJMUOSe7sUjOuB-4" value="Vérin" style="text;html=1;whiteSpace=wrap;strokeColor=none;fillColor=none;align=center;verticalAlign=middle;rounded=0;fontSize=13;fontStyle=1" vertex="1" parent="1">
          <mxGeometry x="330" y="330" width="60" height="30" as="geometry" />
        </mxCell>
        <mxCell id="A7ZzlWJJMUOSe7sUjOuB-5" value="&lt;div style=&quot;line-height: 0%;&quot;&gt;&lt;p style=&quot;text-align: justify;&quot; data-end=&quot;1200&quot; data-start=&quot;1132&quot;&gt;&lt;font style=&quot;font-size: 7px;&quot;&gt;&lt;span style=&quot;background-color: transparent; color: light-dark(rgb(0, 0, 0), rgb(255, 255, 255));&quot; class=&quot;vlist&quot;&gt;&lt;span style=&quot;&quot; class=&quot;boxpad&quot;&gt;&lt;span style=&quot;&quot; class=&quot;mord&quot;&gt;&lt;span style=&quot;&quot; class=&quot;mord&quot;&gt;&lt;font style=&quot;&quot;&gt;&lt;span style=&quot;&quot; class=&quot;mord mathnormal&quot;&gt;D&lt;/span&gt;&lt;span style=&quot;&quot; class=&quot;mord mathnormal&quot;&gt;i&lt;/span&gt;&lt;span style=&quot;&quot; class=&quot;mord mathnormal&quot;&gt;s&lt;/span&gt;&lt;span style=&quot;&quot; class=&quot;mord mathnormal&quot;&gt;t&lt;/span&gt;&lt;span style=&quot;&quot; class=&quot;mord mathnormal&quot;&gt;an&lt;/span&gt;&lt;span style=&quot;&quot; class=&quot;mord mathnormal&quot;&gt;ce&amp;nbsp;&lt;/span&gt;&lt;span style=&quot;&quot; class=&quot;mspace&quot;&gt;&lt;/span&gt;&lt;span style=&quot;&quot; class=&quot;mrel&quot;&gt;=&amp;nbsp;&lt;/span&gt;&lt;/font&gt;&lt;/span&gt;&lt;/span&gt;&lt;/span&gt;&lt;/span&gt;&lt;span style=&quot;background-color: transparent; color: light-dark(rgb(0, 0, 0), rgb(255, 255, 255));&quot; class=&quot;vlist&quot;&gt;&lt;span class=&quot;boxpad&quot;&gt;&lt;span class=&quot;mord&quot;&gt;&lt;span class=&quot;mord&quot;&gt;&lt;span class=&quot;mord&quot;&gt;−&lt;/span&gt;&lt;span class=&quot;mord&quot;&gt;12.63&lt;/span&gt;&lt;span class=&quot;mord&quot;&gt;&lt;span class=&quot;mord mathnormal&quot;&gt;V&lt;/span&gt;&lt;span class=&quot;msupsub&quot;&gt;&lt;span class=&quot;vlist-t&quot;&gt;&lt;span class=&quot;vlist-r&quot;&gt;&lt;span class=&quot;vlist&quot;&gt;&lt;span class=&quot;pstrut&quot;&gt;&lt;/span&gt;&lt;span class=&quot;sizing reset-size6 size3 mtight&quot;&gt;&lt;span class=&quot;mord mtight&quot;&gt;&lt;sup&gt;4&lt;/sup&gt;&amp;nbsp;&lt;/span&gt;&lt;/span&gt;&lt;/span&gt;&lt;/span&gt;&lt;/span&gt;&lt;/span&gt;&lt;/span&gt;&lt;/span&gt;&lt;/span&gt;&lt;/span&gt;&lt;/span&gt;&lt;/font&gt;&lt;/p&gt;&lt;p style=&quot;text-align: justify;&quot; data-end=&quot;1200&quot; data-start=&quot;1132&quot;&gt;&lt;font style=&quot;font-size: 7px;&quot;&gt;&lt;span style=&quot;background-color: transparent; color: light-dark(rgb(0, 0, 0), rgb(255, 255, 255));&quot; class=&quot;vlist&quot;&gt;&lt;span class=&quot;boxpad&quot;&gt;&lt;span class=&quot;mord&quot;&gt;&lt;span class=&quot;mord&quot;&gt;&lt;span class=&quot;mspace&quot;&gt;&lt;/span&gt;&lt;span class=&quot;mbin&quot;&gt;+&amp;nbsp;&lt;/span&gt;&lt;span class=&quot;mspace&quot;&gt;&lt;/span&gt;&lt;span class=&quot;mord&quot;&gt;63.87&lt;/span&gt;&lt;span class=&quot;mord&quot;&gt;&lt;span class=&quot;mord mathnormal&quot;&gt;V&lt;/span&gt;&lt;span class=&quot;msupsub&quot;&gt;&lt;span class=&quot;vlist-t&quot;&gt;&lt;span class=&quot;vlist-r&quot;&gt;&lt;span class=&quot;vlist&quot;&gt;&lt;span class=&quot;pstrut&quot;&gt;&lt;/span&gt;&lt;span class=&quot;sizing reset-size6 size3 mtight&quot;&gt;&lt;span class=&quot;mord mtight&quot;&gt;&lt;sup&gt;3&lt;/sup&gt;&amp;nbsp;&lt;/span&gt;&lt;/span&gt;&lt;/span&gt;&lt;/span&gt;&lt;/span&gt;&lt;/span&gt;&lt;/span&gt;&lt;span class=&quot;mspace&quot;&gt;&lt;/span&gt;&lt;span class=&quot;mbin&quot;&gt;−&amp;nbsp;&lt;/span&gt;&lt;/span&gt;&lt;/span&gt;&lt;/span&gt;&lt;/span&gt;&lt;span style=&quot;background-color: transparent; color: light-dark(rgb(0, 0, 0), rgb(255, 255, 255));&quot; class=&quot;vlist&quot;&gt;&lt;span class=&quot;boxpad&quot;&gt;&lt;span class=&quot;mord&quot;&gt;&lt;span class=&quot;mord&quot;&gt;&lt;span class=&quot;mord&quot;&gt;123.72&lt;/span&gt;&lt;span class=&quot;mord&quot;&gt;&lt;span class=&quot;mord mathnormal&quot;&gt;V&lt;/span&gt;&lt;span class=&quot;msupsub&quot;&gt;&lt;span class=&quot;vlist-t&quot;&gt;&lt;span class=&quot;vlist-r&quot;&gt;&lt;span class=&quot;vlist&quot;&gt;&lt;sup&gt;&lt;span class=&quot;pstrut&quot;&gt;&lt;/span&gt;&lt;span class=&quot;sizing reset-size6 size3 mtight&quot;&gt;&lt;span class=&quot;mord mtight&quot;&gt;2&amp;nbsp;&lt;/span&gt;&lt;/span&gt;&lt;/sup&gt;&lt;/span&gt;&lt;/span&gt;&lt;/span&gt;&lt;/span&gt;&lt;/span&gt;&lt;span class=&quot;mspace&quot;&gt;&lt;/span&gt;&lt;span class=&quot;mbin&quot;&gt;+&lt;/span&gt;&lt;/span&gt;&lt;/span&gt;&lt;/span&gt;&lt;/span&gt;&lt;/font&gt;&lt;/p&gt;&lt;p style=&quot;text-align: justify;&quot; data-end=&quot;1200&quot; data-start=&quot;1132&quot;&gt;&lt;span style=&quot;background-color: transparent; color: light-dark(rgb(0, 0, 0), rgb(255, 255, 255));&quot; class=&quot;vlist&quot;&gt;&lt;span style=&quot;&quot; class=&quot;boxpad&quot;&gt;&lt;span style=&quot;&quot; class=&quot;mord&quot;&gt;&lt;span style=&quot;&quot; class=&quot;mord&quot;&gt;&lt;font style=&quot;font-size: 7px;&quot;&gt;&lt;span style=&quot;&quot; class=&quot;mbin&quot;&gt;&amp;nbsp;&lt;/span&gt;&lt;span style=&quot;&quot; class=&quot;mspace&quot;&gt;&lt;/span&gt;&lt;span style=&quot;&quot; class=&quot;mord&quot;&gt;105.34&lt;/span&gt;&lt;span style=&quot;&quot; class=&quot;mord mathnormal&quot;&gt;V&amp;nbsp;&lt;/span&gt;&lt;span style=&quot;&quot; class=&quot;mspace&quot;&gt;&lt;/span&gt;&lt;span style=&quot;&quot; class=&quot;mbin&quot;&gt;−&amp;nbsp;&lt;/span&gt;&lt;span style=&quot;&quot; class=&quot;mspace&quot;&gt;&lt;/span&gt;&lt;span style=&quot;&quot; class=&quot;mord&quot;&gt;14.65&lt;/span&gt;&lt;/font&gt;&lt;/span&gt;&lt;/span&gt;&lt;/span&gt;&lt;/span&gt;&lt;/p&gt;&lt;/div&gt;" style="rounded=0;whiteSpace=wrap;html=1;align=left;" vertex="1" parent="1">
          <mxGeometry x="520" y="360" width="80" height="60" as="geometry" />
        </mxCell>
        <mxCell id="A7ZzlWJJMUOSe7sUjOuB-6" value="Capteur distance&amp;nbsp;" style="text;html=1;whiteSpace=wrap;strokeColor=none;fillColor=none;align=center;verticalAlign=middle;rounded=0;fontSize=13;fontStyle=1" vertex="1" parent="1">
          <mxGeometry x="490" y="330" width="140" height="30" as="geometry" />
        </mxCell>
        <mxCell id="A7ZzlWJJMUOSe7sUjOuB-7" value="&lt;font style=&quot;font-size: 8px;&quot;&gt;Voltage = (numCapteur* 4.096) / 32767&lt;/font&gt;" style="rounded=0;whiteSpace=wrap;html=1;" vertex="1" parent="1">
          <mxGeometry x="720" y="360" width="80" height="60" as="geometry" />
        </mxCell>
        <mxCell id="A7ZzlWJJMUOSe7sUjOuB-8" value="ADS115" style="text;html=1;whiteSpace=wrap;strokeColor=none;fillColor=none;align=center;verticalAlign=middle;rounded=0;fontSize=13;fontStyle=1" vertex="1" parent="1">
          <mxGeometry x="730" y="330" width="60" height="30" as="geometry" />
        </mxCell>
        <mxCell id="A7ZzlWJJMUOSe7sUjOuB-9" value="&lt;font style=&quot;font-size: 8px;&quot;&gt;Distance&lt;/font&gt;&lt;font style=&quot;font-size: 5px;&quot;&gt;m&lt;/font&gt;&lt;font style=&quot;font-size: 5px;&quot;&gt; =&amp;nbsp;62,9 + -0,0145x + 1,65E-06x^2 + -9,32E-11x^3 + 2,05E-15x^4&lt;/font&gt;" style="rounded=0;whiteSpace=wrap;html=1;" vertex="1" parent="1">
          <mxGeometry x="920" y="360" width="80" height="60" as="geometry" />
        </mxCell>
        <mxCell id="A7ZzlWJJMUOSe7sUjOuB-10" value="ESP32" style="text;html=1;whiteSpace=wrap;strokeColor=none;fillColor=none;align=center;verticalAlign=middle;rounded=0;fontSize=13;fontStyle=1" vertex="1" parent="1">
          <mxGeometry x="930" y="330" width="60" height="30" as="geometry" />
        </mxCell>
        <mxCell id="A7ZzlWJJMUOSe7sUjOuB-11" value="" style="endArrow=classic;html=1;rounded=0;exitX=1;exitY=0.5;exitDx=0;exitDy=0;entryX=0;entryY=0.5;entryDx=0;entryDy=0;" edge="1" parent="1" source="A7ZzlWJJMUOSe7sUjOuB-1" target="A7ZzlWJJMUOSe7sUjOuB-3">
          <mxGeometry width="50" height="50" relative="1" as="geometry">
            <mxPoint x="580" y="510" as="sourcePoint" />
            <mxPoint x="630" y="460" as="targetPoint" />
          </mxGeometry>
        </mxCell>
        <mxCell id="A7ZzlWJJMUOSe7sUjOuB-12" value="" style="endArrow=classic;html=1;rounded=0;exitX=1;exitY=0.5;exitDx=0;exitDy=0;entryX=0;entryY=0.5;entryDx=0;entryDy=0;" edge="1" parent="1" source="A7ZzlWJJMUOSe7sUjOuB-3" target="A7ZzlWJJMUOSe7sUjOuB-5">
          <mxGeometry width="50" height="50" relative="1" as="geometry">
            <mxPoint x="580" y="510" as="sourcePoint" />
            <mxPoint x="630" y="460" as="targetPoint" />
          </mxGeometry>
        </mxCell>
        <mxCell id="A7ZzlWJJMUOSe7sUjOuB-13" value="" style="endArrow=classic;html=1;rounded=0;exitX=1;exitY=0.5;exitDx=0;exitDy=0;entryX=0;entryY=0.5;entryDx=0;entryDy=0;" edge="1" parent="1" source="A7ZzlWJJMUOSe7sUjOuB-5" target="A7ZzlWJJMUOSe7sUjOuB-7">
          <mxGeometry width="50" height="50" relative="1" as="geometry">
            <mxPoint x="580" y="510" as="sourcePoint" />
            <mxPoint x="630" y="460" as="targetPoint" />
          </mxGeometry>
        </mxCell>
        <mxCell id="A7ZzlWJJMUOSe7sUjOuB-14" value="" style="endArrow=classic;html=1;rounded=0;entryX=0;entryY=0.5;entryDx=0;entryDy=0;exitX=1;exitY=0.5;exitDx=0;exitDy=0;" edge="1" parent="1" source="A7ZzlWJJMUOSe7sUjOuB-7" target="A7ZzlWJJMUOSe7sUjOuB-9">
          <mxGeometry width="50" height="50" relative="1" as="geometry">
            <mxPoint x="580" y="510" as="sourcePoint" />
            <mxPoint x="630" y="460" as="targetPoint" />
          </mxGeometry>
        </mxCell>
        <mxCell id="A7ZzlWJJMUOSe7sUjOuB-15" value="V&lt;font style=&quot;font-size: 8px;&quot;&gt;alim&lt;/font&gt;" style="text;html=1;whiteSpace=wrap;strokeColor=none;fillColor=none;align=center;verticalAlign=middle;rounded=0;" vertex="1" parent="1">
          <mxGeometry x="230" y="370" width="60" height="30" as="geometry" />
        </mxCell>
        <mxCell id="A7ZzlWJJMUOSe7sUjOuB-16" value="Distance (cm)" style="text;html=1;whiteSpace=wrap;strokeColor=none;fillColor=none;align=center;verticalAlign=middle;rounded=0;" vertex="1" parent="1">
          <mxGeometry x="420" y="370" width="80" height="30" as="geometry" />
        </mxCell>
        <mxCell id="A7ZzlWJJMUOSe7sUjOuB-17" value="Voltage" style="text;html=1;whiteSpace=wrap;strokeColor=none;fillColor=none;align=center;verticalAlign=middle;rounded=0;" vertex="1" parent="1">
          <mxGeometry x="630" y="370" width="60" height="30" as="geometry" />
        </mxCell>
        <mxCell id="A7ZzlWJJMUOSe7sUjOuB-18" value="Valeur numérique" style="text;html=1;whiteSpace=wrap;strokeColor=none;fillColor=none;align=center;verticalAlign=middle;rounded=0;" vertex="1" parent="1">
          <mxGeometry x="800" y="370" width="110" height="30" as="geometry" />
        </mxCell>
        <mxCell id="A7ZzlWJJMUOSe7sUjOuB-19" value="" style="endArrow=classic;html=1;rounded=0;entryX=0;entryY=0.5;entryDx=0;entryDy=0;exitX=1;exitY=0.5;exitDx=0;exitDy=0;" edge="1" parent="1" source="A7ZzlWJJMUOSe7sUjOuB-9" target="A7ZzlWJJMUOSe7sUjOuB-1">
          <mxGeometry width="50" height="50" relative="1" as="geometry">
            <mxPoint x="1040" y="480" as="sourcePoint" />
            <mxPoint x="630" y="460" as="targetPoint" />
            <Array as="points">
              <mxPoint x="1040" y="390" />
              <mxPoint x="1040" y="480" />
              <mxPoint x="80" y="480" />
              <mxPoint x="80" y="390" />
            </Array>
          </mxGeometry>
        </mxCell>
        <mxCell id="A7ZzlWJJMUOSe7sUjOuB-20" value="Distance&lt;font style=&quot;font-size: 7px;&quot;&gt;m&lt;/font&gt; = distance mesurée (cm)" style="text;html=1;whiteSpace=wrap;strokeColor=none;fillColor=none;align=center;verticalAlign=middle;rounded=0;" vertex="1" parent="1">
          <mxGeometry x="460" y="460" width="200" height="30" as="geometry" />
        </mxCell>
      </root>
    </mxGraphModel>
  </diagram>
</mxfile>
